<svg xmlns="http://www.w3.org/2000/svg" xmlns:xlink="http://www.w3.org/1999/xlink" width="640" height="240" preserveAspectRatio="xMidYMid meet" version="1.1" viewBox="0 0 640 240"><defs><path id="arXc2ydW9" d="M208.43 95.9C208.43 107.39 208.43 132.61 208.43 144.1C208.43 149.2 204.29 153.33 199.19 153.33C171.96 153.33 99.52 153.33 72.29 153.33C67.19 153.33 63.06 149.2 63.06 144.1C63.06 132.61 63.06 107.39 63.06 95.9C63.06 90.8 67.19 86.67 72.29 86.67C99.52 86.67 171.96 86.67 199.19 86.67C204.29 86.67 208.43 90.8 208.43 95.9Z"/><path id="b1z61c5xlm" d="M392.69 95.9C392.69 107.39 392.69 132.61 392.69 144.1C392.69 149.2 388.55 153.33 383.45 153.33C356.22 153.33 283.78 153.33 256.55 153.33C251.45 153.33 247.31 149.2 247.31 144.1C247.31 132.61 247.31 107.39 247.31 95.9C247.31 90.8 251.45 86.67 256.55 86.67C283.78 86.67 356.22 86.67 383.45 86.67C388.55 86.67 392.69 90.8 392.69 95.9Z"/><path id="d1l7um7Osp" d="M578.8 95.9C578.8 107.39 578.8 132.61 578.8 144.1C578.8 149.2 574.66 153.33 569.56 153.33C542.33 153.33 469.89 153.33 442.66 153.33C437.56 153.33 433.43 149.2 433.43 144.1C433.43 132.61 433.43 107.39 433.43 95.9C433.43 90.8 437.56 86.67 442.66 86.67C469.89 86.67 542.33 86.67 569.56 86.67C574.66 86.67 578.8 90.8 578.8 95.9Z"/></defs><g><g><g><use fill="#3b5998" fill-opacity="1" opacity="1" xlink:href="#arXc2ydW9"/><g><use fill-opacity="0" stroke="#000" stroke-opacity="0" stroke-width="1" opacity="1" xlink:href="#arXc2ydW9"/></g></g><g><use fill="#fa3e2c" fill-opacity="1" opacity="1" xlink:href="#b1z61c5xlm"/><g><use fill-opacity="0" stroke="#000" stroke-opacity="0" stroke-width="1" opacity="1" xlink:href="#b1z61c5xlm"/></g></g><g><use fill="#25d366" fill-opacity="1" opacity="1" xlink:href="#d1l7um7Osp"/><g><use fill-opacity="0" stroke="#000" stroke-opacity="0" stroke-width="1" opacity="1" xlink:href="#d1l7um7Osp"/></g></g></g></g></svg>